<svg width="75" height="75" viewBox="0 0 75 75" fill="none" xmlns="http://www.w3.org/2000/svg">
<g clip-path="url(#clip0_8_14)">
<path d="M37.5012 75.0023C58.2125 75.0023 75.0023 58.2125 75.0023 37.5012C75.0023 16.7898 58.2125 0 37.5012 0C16.7898 0 0 16.7898 0 37.5012C0 58.2125 16.7898 75.0023 37.5012 75.0023Z" fill="white"/>
<path d="M36.0596 30.8734V32.8831C36.0596 32.9454 36.0349 33.0051 35.9909 33.0491C35.9469 33.0931 35.8871 33.1179 35.8249 33.1179C35.7626 33.1179 35.7029 33.0931 35.6589 33.0491C35.6148 33.0051 35.5901 32.9454 35.5901 32.8831V30.8734C35.5901 30.8111 35.6148 30.7514 35.6589 30.7074C35.7029 30.6633 35.7626 30.6386 35.8249 30.6386C35.8871 30.6386 35.9469 30.6633 35.9909 30.7074C36.0349 30.7514 36.0596 30.8111 36.0596 30.8734Z" stroke="#FF0033" stroke-width="2.81" stroke-miterlimit="28.1"/>
<path d="M45.3216 19.4796C45.3225 19.5525 45.3086 19.6248 45.2807 19.6922C45.2529 19.7596 45.2117 19.8206 45.1596 19.8716L42.8987 22.1349C42.8477 22.1873 42.7868 22.2289 42.7194 22.2574C42.6521 22.2858 42.5797 22.3005 42.5066 22.3005C42.4335 22.3005 42.3612 22.2858 42.2938 22.2574C42.2265 22.2289 42.1655 22.1873 42.1146 22.1349L39.8912 19.9139V26.2529C39.8912 26.3152 39.8665 26.3749 39.8224 26.4189C39.7784 26.463 39.7187 26.4877 39.6564 26.4877C39.5942 26.4877 39.5344 26.463 39.4904 26.4189C39.4464 26.3749 39.4216 26.3152 39.4216 26.2529V19.3387C39.4236 19.2927 39.4376 19.2481 39.4624 19.2094C39.4871 19.1706 39.5217 19.1391 39.5625 19.118C39.6042 19.0987 39.651 19.0931 39.6961 19.102C39.7412 19.1108 39.7824 19.1337 39.8137 19.1673L42.4456 21.7921C42.462 21.807 42.4833 21.8152 42.5055 21.8152C42.5276 21.8152 42.5489 21.807 42.5653 21.7921L44.8286 19.5289C44.8434 19.5125 44.8517 19.4911 44.8517 19.469C44.8517 19.4469 44.8434 19.4255 44.8286 19.4091L37.8111 12.401C37.7942 12.3864 37.7723 12.3788 37.75 12.3799C37.7101 12.3799 37.689 12.3799 37.6702 12.401L30.6503 19.4185C30.6411 19.4258 30.6335 19.435 30.6284 19.4456C30.6232 19.4562 30.6206 19.4678 30.6206 19.4796C30.6206 19.4913 30.6232 19.5029 30.6284 19.5135C30.6335 19.5241 30.6411 19.5334 30.6503 19.5406L32.9136 21.8015C32.93 21.8164 32.9513 21.8246 32.9735 21.8246C32.9956 21.8246 33.0169 21.8164 33.0333 21.8015L35.6511 19.1673C35.682 19.1331 35.7232 19.1097 35.7685 19.1009C35.8138 19.092 35.8607 19.098 35.9023 19.118C35.9451 19.1366 35.9813 19.1676 36.0064 19.2069C36.0315 19.2462 36.0443 19.2921 36.0432 19.3387V28.8003C36.0432 28.8625 36.0184 28.9223 35.9744 28.9663C35.9304 29.0103 35.8707 29.035 35.8084 29.035C35.7461 29.035 35.6864 29.0103 35.6424 28.9663C35.5984 28.9223 35.5736 28.8625 35.5736 28.8003V19.9139L33.3409 22.1466C33.2899 22.199 33.2289 22.2407 33.1616 22.2691C33.0943 22.2976 33.0219 22.3122 32.9488 22.3122C32.8757 22.3122 32.8033 22.2976 32.736 22.2691C32.6687 22.2407 32.6077 22.199 32.5567 22.1466L30.2958 19.8834C30.194 19.7783 30.137 19.6377 30.137 19.4913C30.137 19.3449 30.194 19.2043 30.2958 19.0992L37.3133 12.0817C37.366 12.0259 37.4304 11.9825 37.5018 11.9545C37.5733 11.9265 37.65 11.9146 37.7265 11.9197C37.7998 11.9158 37.8731 11.9283 37.9409 11.9564C38.0087 11.9844 38.0695 12.0272 38.1186 12.0817L45.1362 19.0992C45.1923 19.1458 45.2379 19.2038 45.2698 19.2694C45.3018 19.335 45.3195 19.4066 45.3216 19.4796Z" stroke="#FF0033" stroke-width="2.81" stroke-miterlimit="28.1"/>
<path d="M39.8912 28.1969V30.1479C39.8912 30.2102 39.8665 30.2699 39.8224 30.3139C39.7784 30.358 39.7187 30.3827 39.6564 30.3827C39.5941 30.3827 39.5344 30.358 39.4904 30.3139C39.4464 30.2699 39.4216 30.2102 39.4216 30.1479V28.1969C39.4216 28.1346 39.4464 28.0749 39.4904 28.0309C39.5344 27.9869 39.5941 27.9621 39.6564 27.9621C39.7187 27.9621 39.7784 27.9869 39.8224 28.0309C39.8665 28.0749 39.8912 28.1346 39.8912 28.1969Z" stroke="#FF0033" stroke-width="2.81" stroke-miterlimit="28.1"/>
<path d="M37.9707 23.3299V31.3946C37.9707 31.4568 37.946 31.5166 37.9019 31.5606C37.8579 31.6046 37.7982 31.6294 37.7359 31.6294C37.6737 31.6294 37.614 31.6046 37.5699 31.5606C37.5259 31.5166 37.5012 31.4568 37.5012 31.3946V23.3299C37.5012 23.2677 37.5259 23.2079 37.5699 23.1639C37.614 23.1199 37.6737 23.0952 37.7359 23.0952C37.7982 23.0952 37.8579 23.1199 37.9019 23.1639C37.946 23.2079 37.9707 23.2677 37.9707 23.3299Z" stroke="#FF0033" stroke-width="2.81" stroke-miterlimit="28.1"/>
<path d="M57.4855 30.7489C57.1595 30.5687 56.7987 30.46 56.4274 30.4303C56.056 30.4005 55.6825 30.4502 55.3319 30.5762C54.9813 30.7022 54.6616 30.9015 54.3941 31.1608C54.1266 31.4202 53.9175 31.7336 53.7807 32.0801C53.5953 32.5497 53.56 33.5804 53.4145 42.0441C53.3065 48.7658 53.2947 51.602 53.3887 51.9048C53.6489 52.5611 54.1185 53.1133 54.7245 53.4755C55.3414 53.7615 56.0425 53.8084 56.692 53.607C57.06 53.4974 57.3911 53.2896 57.6499 53.0059C58.3918 52.2899 58.4317 52.0832 58.4857 48.8668L58.5467 46.0283L60.7067 46.0588C63.8856 46.1011 63.7166 46.2936 63.7987 42.2765C63.8809 38.1679 64.0335 38.3651 60.8382 38.2853L58.6594 38.2501L58.7064 35.4093C58.7604 32.3008 58.7205 32.0261 58.0913 31.2983C57.9168 31.087 57.7128 30.902 57.4855 30.7489Z" fill="#FF0033"/>
<path d="M49.9844 28.2227C49.6622 27.9697 49.2816 27.8016 48.8775 27.7339C48.4735 27.6662 48.0589 27.7011 47.6718 27.8353C47.2833 27.9285 46.9321 28.1372 46.6646 28.434C45.8053 29.2651 45.8687 28.4833 45.6386 41.9126C45.5025 50.2966 45.4813 54.107 45.5682 54.3958C45.6644 54.7456 45.7795 54.9123 46.2303 55.3795C46.8477 56.0205 47.1882 56.1731 47.9888 56.1801C48.3025 56.2025 48.6175 56.1577 48.9126 56.0488C49.2077 55.9399 49.4762 55.7694 49.7003 55.5486C50.6629 54.7269 50.5784 55.6848 50.8225 42.1216C50.9751 33.6156 50.9939 29.9272 50.9094 29.6032C50.7546 29.0569 50.4308 28.5736 49.9844 28.2227Z" fill="#FF0033"/>
<path d="M37.5059 37.8886L31.9393 37.7923L31.8806 41.6779L31.8078 45.5588L37.3979 45.655L42.9997 45.7513L43.0654 41.8986C43.1006 39.7856 43.1171 38.0341 43.1006 38.0153C43.0842 37.9966 40.5627 37.9402 37.5059 37.8886Z" fill="#FF0033"/>
<path d="M28.1734 27.6616C27.7985 27.4577 27.3769 27.3549 26.9502 27.3634C26.6365 27.3415 26.3216 27.3865 26.0266 27.4954C25.7315 27.6042 25.463 27.7745 25.2387 27.995C24.2761 28.8167 24.3606 27.8588 24.1164 41.4337C23.8816 54.8865 23.8488 54.201 24.6611 55.0509C24.9827 55.4046 25.4009 55.6565 25.864 55.7754C26.3271 55.8943 26.8149 55.875 27.2672 55.72C27.6555 55.6249 28.0063 55.4155 28.2743 55.1189C29.1336 54.2902 29.0703 55.072 29.3003 41.6427C29.4412 32.9887 29.4576 29.46 29.3708 29.1595C29.2276 28.6993 28.5561 27.8565 28.1734 27.6616Z" fill="#FF0033"/>
<path d="M20.1558 30.0329C19.5517 29.7858 18.881 29.7543 18.2564 29.9437C17.8884 30.0532 17.5573 30.261 17.2985 30.5447C16.5566 31.2608 16.5167 31.4674 16.4627 34.6838L16.3993 37.5223L14.2393 37.4918C11.0651 37.4566 11.2295 37.257 11.1473 41.2741C11.0604 45.378 10.9125 45.1855 14.1079 45.2653L16.2655 45.3076L16.2303 48.2071C16.181 51.4541 16.2091 51.5832 16.9769 52.3791C17.2071 52.6491 17.5066 52.8512 17.8432 52.9637C18.4818 53.2012 19.1882 53.178 19.8097 52.899C20.4313 52.6201 20.9183 52.1078 21.1653 51.4728C21.3508 51.0033 21.386 49.9703 21.5316 41.5065C21.6396 34.8224 21.6513 31.9487 21.5574 31.6458C21.2729 30.9732 20.782 30.4084 20.1558 30.0329Z" fill="#FF0033"/>
</g>
<defs>
<clipPath id="clip0_8_14">
<rect width="75" height="75" fill="white"/>
</clipPath>
</defs>
</svg>
